<svg xmlns="http://www.w3.org/2000/svg" width="20.527" height="22.696" viewBox="0 0 20.527 22.696">
  <path id="Icon_material-event-note" data-name="Icon material-event-note" d="M19.687,11.263H8.839v2.17H19.687Zm2.17-7.594H20.772V1.5H18.6V3.67H9.924V1.5H7.754V3.67H6.67a2.16,2.16,0,0,0-2.159,2.17L4.5,21.027A2.169,2.169,0,0,0,6.67,23.2H21.857a2.176,2.176,0,0,0,2.17-2.17V5.839A2.176,2.176,0,0,0,21.857,3.67Zm0,17.357H6.67V9.094H21.857ZM16.433,15.6H8.839v2.17h7.594Z" transform="translate(-4 -1)" fill="none" stroke="#5b5b5b" stroke-width="1"/>
</svg>
