<svg xmlns="http://www.w3.org/2000/svg" width="22.284" height="22.134" viewBox="0 0 22.284 22.134">
  <path id="Icon_awesome-tools" data-name="Icon awesome-tools" d="M20.524,16.208l-4.8-4.8a3.041,3.041,0,0,0-3.5-.569L7.863,6.476V3.932L2.62,0,0,2.622,3.931,7.865H6.474l4.366,4.366a3.048,3.048,0,0,0,.569,3.5l4.8,4.8a1.523,1.523,0,0,0,2.159,0l2.159-2.159a1.53,1.53,0,0,0,0-2.159ZM13.585,9.216a4.31,4.31,0,0,1,3.068,1.27l.795.795a5.8,5.8,0,0,0,1.794-1.208,5.891,5.891,0,0,0,1.552-5.6.49.49,0,0,0-.823-.225L16.924,7.3l-2.781-.463L13.68,4.051,16.727,1a.5.5,0,0,0-.233-.827,5.9,5.9,0,0,0-5.6,1.552A5.8,5.8,0,0,0,9.211,5.972l3.363,3.363a4.462,4.462,0,0,1,1.012-.119ZM9.329,12.575,7.007,10.253.765,16.5a2.621,2.621,0,0,0,3.707,3.707l5.063-5.063a4.4,4.4,0,0,1-.2-2.568ZM2.62,19.334a.983.983,0,1,1,.983-.983A.986.986,0,0,1,2.62,19.334Z" transform="translate(0.693 0.66)" fill="none" stroke="#5b5b5b" stroke-width="1"/>
</svg>
