<svg xmlns="http://www.w3.org/2000/svg" width="30.29" height="20.527" viewBox="0 0 30.29 20.527">
  <path id="Icon_awesome-newspaper" data-name="Icon awesome-newspaper" d="M28.07,4.5H4.475a1.22,1.22,0,0,0-1.22,1.22v.407H1.22A1.22,1.22,0,0,0,0,7.348V21.179a2.848,2.848,0,0,0,2.848,2.848h24a2.441,2.441,0,0,0,2.441-2.441V5.72A1.22,1.22,0,0,0,28.07,4.5ZM2.848,21.586a.407.407,0,0,1-.407-.407V8.568h.814V21.179A.407.407,0,0,1,2.848,21.586Zm12-.814H7.119a.61.61,0,0,1-.61-.61v-.407a.61.61,0,0,1,.61-.61h7.729a.61.61,0,0,1,.61.61v.407A.61.61,0,0,1,14.848,20.772Zm10.577,0H17.7a.61.61,0,0,1-.61-.61v-.407a.61.61,0,0,1,.61-.61h7.729a.61.61,0,0,1,.61.61v.407A.61.61,0,0,1,25.425,20.772ZM14.848,15.891H7.119a.61.61,0,0,1-.61-.61v-.407a.61.61,0,0,1,.61-.61h7.729a.61.61,0,0,1,.61.61v.407A.61.61,0,0,1,14.848,15.891Zm10.577,0H17.7a.61.61,0,0,1-.61-.61v-.407a.61.61,0,0,1,.61-.61h7.729a.61.61,0,0,1,.61.61v.407A.61.61,0,0,1,25.425,15.891Zm0-4.882H7.119a.61.61,0,0,1-.61-.61V8.365a.61.61,0,0,1,.61-.61H25.425a.61.61,0,0,1,.61.61V10.4A.61.61,0,0,1,25.425,11.009Z" transform="translate(0.5 -4)" fill="none" stroke="#5b5b5b" stroke-width="1"/>
</svg>
