<svg xmlns="http://www.w3.org/2000/svg" width="38.5" height="29.333" viewBox="0 0 38.5 29.333">
  <path id="Icon_awesome-users-cog" data-name="Icon awesome-users-cog" d="M36.729,22.507a8.352,8.352,0,0,0,0-2.79l1.552-.976a.494.494,0,0,0,.2-.557,10.065,10.065,0,0,0-2-3.759.413.413,0,0,0-.541-.092l-1.552.976a6.948,6.948,0,0,0-2.22-1.395V11.963a.47.47,0,0,0-.343-.465,8.357,8.357,0,0,0-3.983,0,.47.47,0,0,0-.343.465v1.952a6.948,6.948,0,0,0-2.22,1.395l-1.552-.976a.415.415,0,0,0-.541.092,10.065,10.065,0,0,0-2,3.759.5.5,0,0,0,.2.557l1.552.976a8.352,8.352,0,0,0,0,2.79l-1.552.976a.494.494,0,0,0-.2.557,10.115,10.115,0,0,0,2,3.759.413.413,0,0,0,.541.092l1.552-.976a6.948,6.948,0,0,0,2.22,1.395v1.952a.47.47,0,0,0,.343.465,8.357,8.357,0,0,0,3.983,0,.47.47,0,0,0,.343-.465V28.309a6.948,6.948,0,0,0,2.22-1.395l1.552.976a.415.415,0,0,0,.541-.092,10.065,10.065,0,0,0,2-3.759.5.5,0,0,0-.2-.557l-1.552-.976Zm-6.889,1.781a3.058,3.058,0,0,1-2.918-3.176,2.928,2.928,0,1,1,5.836,0A3.058,3.058,0,0,1,29.841,24.288ZM5.776,14.825a4.036,4.036,0,0,0,3.85-4.191,4.036,4.036,0,0,0-3.85-4.191,4.036,4.036,0,0,0-3.85,4.191A4.036,4.036,0,0,0,5.776,14.825Zm13.476,2.1c.114,0,.223-.033.337-.039A12.3,12.3,0,0,1,21.773,13a2.287,2.287,0,0,1,1.739-.825,2.171,2.171,0,0,1,1.179.347l.475.3c.048-.033.1-.059.144-.092a7.781,7.781,0,0,0,.674-3.144c0-4.054-3.014-7.335-6.738-7.335s-6.732,3.275-6.732,7.328S15.528,16.92,19.252,16.92Zm6.329,12.738c-.138-.079-.277-.17-.409-.255a2.827,2.827,0,0,1-1.654.642,2.305,2.305,0,0,1-1.739-.825,12.232,12.232,0,0,1-2.419-4.558,2.824,2.824,0,0,1,1.552-3.294q-.009-.255,0-.511l-.475-.3a2.51,2.51,0,0,1-.59-.53c-.2.013-.391.039-.59.039a8.869,8.869,0,0,1-4.121-1.048h-.5c-3.832,0-6.937,3.379-6.937,7.545v1.886a3.025,3.025,0,0,0,2.888,3.144H25.954a2.683,2.683,0,0,1-.373-1.329ZM10.414,18.139A3.688,3.688,0,0,0,7.7,16.92H3.85A4.036,4.036,0,0,0,0,21.112v2.1a2.014,2.014,0,0,0,1.925,2.1H5.89A9.639,9.639,0,0,1,10.414,18.139Z" transform="translate(0 -2.257)" fill="#fff"/>
</svg>
