<svg xmlns="http://www.w3.org/2000/svg" width="18.334" height="13.521" viewBox="0 0 18.334 13.521">
  <g id="Group_11718" data-name="Group 11718" transform="translate(-300)">
    <path id="Icon_material-event-note" data-name="Icon material-event-note" d="M13.964,7.584H7.2V8.936h6.76Zm1.352-4.732H14.64V1.5H13.288V2.852H7.88V1.5H6.528V2.852H5.852A1.346,1.346,0,0,0,4.507,4.2L4.5,13.668a1.352,1.352,0,0,0,1.352,1.352h9.464a1.356,1.356,0,0,0,1.352-1.352V4.2A1.356,1.356,0,0,0,15.316,2.852Zm0,10.816H5.852V6.232h9.464Zm-3.38-3.38H7.2V11.64h4.732Z" transform="translate(295.5 -1.5)" fill="#fff"/>
    <path id="Icon_ionic-ios-close-circle" data-name="Icon ionic-ios-close-circle" d="M7.49,3.375A4.115,4.115,0,1,0,11.6,7.49,4.114,4.114,0,0,0,7.49,3.375Zm1.043,5.6L7.49,7.937,6.447,8.98A.316.316,0,1,1,6,8.533L7.043,7.49,6,6.447A.316.316,0,0,1,6.447,6L7.49,7.043,8.533,6a.316.316,0,0,1,.447.447L7.937,7.49,8.98,8.533a.318.318,0,0,1,0,.447A.314.314,0,0,1,8.533,8.98Z" transform="translate(306.729 -3.375)" fill="#fff"/>
  </g>
</svg>
