<svg xmlns="http://www.w3.org/2000/svg" width="24.457" height="21.5" viewBox="0 0 24.457 21.5">
  <path id="Organisation_" data-name="Organisation " d="M24.926,25.5H1.532a.532.532,0,1,1,0-1.063H24.926a.532.532,0,0,1,0,1.063ZM8.975,20.183a.532.532,0,1,1,0,1.063H4.722a.532.532,0,1,1,0-1.063h.532V13.271H4.722a.532.532,0,0,1,0-1.063H8.975a.532.532,0,0,1,0,1.063H8.443v6.912Zm-1.6-6.912H6.317v6.912H7.38Zm7.975,6.912a.532.532,0,1,1,0,1.063H11.1a.532.532,0,1,1,0-1.063h.532V13.271H11.1a.532.532,0,0,1,0-1.063h4.253a.532.532,0,0,1,0,1.063h-.532v6.912Zm-1.6-6.912H12.7v6.912H13.76Zm10.1,9.57a.531.531,0,0,1-.532.532H3.127a.532.532,0,1,1,0-1.063h20.2A.531.531,0,0,1,23.862,22.842Zm-2.127-2.658a.532.532,0,0,1,0,1.063H17.482a.532.532,0,0,1,0-1.063h.532V13.271h-.532a.532.532,0,0,1,0-1.063h4.253a.532.532,0,0,1,0,1.063H21.2v6.912Zm-1.6-6.912H19.077v6.912H20.14ZM2.063,10.081,13.229,4l11.165,6.081v1.063H2.063Zm19.96,0L13.229,5.534,4.4,10.081Z" transform="translate(-1 -4)" fill="#fff" fill-rule="evenodd"/>
</svg>
