<svg xmlns="http://www.w3.org/2000/svg" width="23.087" height="23.087" viewBox="0 0 23.087 23.087">
  <g id="Group_11736" data-name="Group 11736" transform="translate(-415.703 -236.763)">
    <g id="portfolio" transform="translate(415.703 236.763)">
      <g id="Group_11667" data-name="Group 11667" transform="translate(0)">
        <g id="Group_11666" data-name="Group 11666">
          <path id="Path_11868" data-name="Path 11868" d="M22.949,11.87a.769.769,0,0,0-.629-.326H20.011V8.465a.77.77,0,0,0-.77-.77h-.77V4.617a.771.771,0,0,0-.77-.77H16.548V2.693a.77.77,0,0,0-.77-.77H14.624V.77a.77.77,0,0,0-.77-.77H4.619a.77.77,0,0,0-.77.77V7.7H.387a.364.364,0,0,0-.069.014.366.366,0,0,0-.063.009l-.008,0a.375.375,0,0,0-.076.046A.385.385,0,0,0,.121,7.8a.374.374,0,0,0-.044.06.383.383,0,0,0-.04.06.39.39,0,0,0-.015.061A.375.375,0,0,0,0,8.071s0,.006,0,.01V22.7s0,.009,0,.014a.382.382,0,0,0,.027.132s.005.009.007.014a.382.382,0,0,0,.033.062.372.372,0,0,0,.033.037l.017.019a.381.381,0,0,0,.105.071l.025.009a.38.38,0,0,0,.134.027h18.36a.771.771,0,0,0,.725-.511l3.573-10A.769.769,0,0,0,22.949,11.87Zm-4.477-3.4h.77v3.078h-.77ZM17.7,4.617v6.926H15.257a3.463,3.463,0,1,0-4.344,0H8.467V4.617ZM13.085,10a1.26,1.26,0,0,1,.838.3.823.823,0,0,1,.316.632v.344a2.66,2.66,0,0,1-2.309,0v-.344A1.062,1.062,0,0,1,13.085,10Zm-.77-1.539a.77.77,0,1,1,.77.77A.77.77,0,0,1,12.315,8.465ZM14.18,9.544a1.539,1.539,0,1,0-2.193,0,1.672,1.672,0,0,0-.806,1.212,2.693,2.693,0,1,1,3.806,0h0a1.6,1.6,0,0,0-.564-1.036A1.866,1.866,0,0,0,14.18,9.544Zm1.6-6.85V3.848H8.467a.771.771,0,0,0-.77.77v6.926H6.543V2.693ZM4.619.77h9.235V1.924H6.543a.77.77,0,0,0-.77.77v8.85H4.619Zm-.77,7.7V11.6l-1.672.279L.936,8.465H3.85Zm-3.078,1.8.683,1.879a.769.769,0,0,0,.85.5l1.347-.225L.772,20.481V10.265ZM18.746,22.318H.933l3.573-10H22.319Z" transform="translate(-0.002)" fill="#505457"/>
          <path id="Path_11869" data-name="Path 11869" d="M163.288,293.035v.824a1.156,1.156,0,0,0,1.154,1.154h5.387a1.156,1.156,0,0,0,1.154-1.154v-.824a1.539,1.539,0,1,0-.77,0v.824a.385.385,0,0,1-.385.385h-5.387a.385.385,0,0,1-.385-.385v-.824a1.539,1.539,0,1,0-.77,0Zm6.568-1.688a.77.77,0,1,1,1.128.866v-.278a.385.385,0,0,0-.77,0v.278A.77.77,0,0,1,169.855,291.348Zm-6.319-.558a.77.77,0,0,1,.521,1.424v-.278a.385.385,0,0,0-.77,0v.278a.77.77,0,0,1,.249-1.424Z" transform="translate(-154.823 -276.929)" fill="#505457"/>
        </g>
      </g>
    </g>
  </g>
</svg>
