<svg xmlns="http://www.w3.org/2000/svg" width="23.383" height="23.384" viewBox="0 0 23.383 23.384">
  <g id="Group_11740" data-name="Group 11740" transform="translate(-600.854 -235.763)">
    <g id="Blue_Reporting" transform="translate(600.854 235.763)">
      <path id="Path_11885" data-name="Path 11885" d="M22.121,13.646V6.25A2.639,2.639,0,1,0,19.1,3.64H1V18.726H12.334a6.031,6.031,0,1,0,9.787-5.08ZM21.743,1.754A1.886,1.886,0,1,1,19.858,3.64,1.888,1.888,0,0,1,21.743,1.754ZM1.754,4.394h17.46a2.638,2.638,0,0,0,.418.824L17.325,7.525a1.092,1.092,0,0,0-.97,0l-.76-.76a1.121,1.121,0,0,0,.113-.485,1.131,1.131,0,0,0-2.263,0,1.113,1.113,0,0,0,.114.485L11.668,8.656a1.121,1.121,0,0,0-.485-.113,1.131,1.131,0,1,0,1.131,1.131A1.113,1.113,0,0,0,12.2,9.19L14.092,7.3a1.094,1.094,0,0,0,.97,0l.76.76a1.121,1.121,0,0,0-.113.485,1.131,1.131,0,0,0,2.263,0,1.113,1.113,0,0,0-.114-.485l2.307-2.307a2.624,2.624,0,0,0,1.2.5v6.881a6,6,0,0,0-7.543,1.24V12.692H11.56v4.526h.864a6.05,6.05,0,0,0-.091.754H1.754ZM16.84,8.166a.377.377,0,1,1-.377.377A.378.378,0,0,1,16.84,8.166ZM14.2,6.28a.377.377,0,1,1,.377.377A.378.378,0,0,1,14.2,6.28ZM11.56,9.674a.377.377,0,1,1-.377-.377A.378.378,0,0,1,11.56,9.674Zm6.789,11.692a3.017,3.017,0,1,1,3.017-3.017A3.021,3.021,0,0,1,18.349,21.366Zm-5.28-5.932a5.989,5.989,0,0,0-.448,1.029h-.306V13.446h.754Zm4.9-2.346V14.6a3.764,3.764,0,0,0-3.058,5.3l-1.308.755a5.262,5.262,0,0,1,4.367-7.564Zm.377,10.541a5.277,5.277,0,0,1-4.37-2.321l1.314-.758a3.759,3.759,0,0,0,6.114,0l1.314.758A5.277,5.277,0,0,1,18.349,23.629Zm4.744-2.977L21.784,19.9a3.764,3.764,0,0,0-3.058-5.3V13.088a5.262,5.262,0,0,1,4.367,7.564Z" transform="translate(-1 -1)" fill="#4683c3"/>
      <path id="Path_11886" data-name="Path 11886" d="M43.263,41a2.263,2.263,0,1,0,2.263,2.263A2.265,2.265,0,0,0,43.263,41Zm0,3.772a1.509,1.509,0,1,1,1.509-1.509A1.51,1.51,0,0,1,43.263,44.772Z" transform="translate(-25.914 -25.914)" fill="#4683c3"/>
      <path id="Path_11887" data-name="Path 11887" d="M5,12h.754v.754H5Z" transform="translate(-3.491 -7.851)" fill="#4683c3"/>
      <path id="Path_11888" data-name="Path 11888" d="M9,12h5.28v.754H9Z" transform="translate(-5.983 -7.851)" fill="#4683c3"/>
      <path id="Path_11889" data-name="Path 11889" d="M5,16h.754v.754H5Z" transform="translate(-3.491 -10.343)" fill="#4683c3"/>
      <path id="Path_11890" data-name="Path 11890" d="M9,16h5.28v.754H9Z" transform="translate(-5.983 -10.343)" fill="#4683c3"/>
      <path id="Path_11891" data-name="Path 11891" d="M5,20h.754v.754H5Z" transform="translate(-3.491 -12.834)" fill="#4683c3"/>
      <path id="Path_11892" data-name="Path 11892" d="M9,20h5.28v.754H9Z" transform="translate(-5.983 -12.834)" fill="#4683c3"/>
      <path id="Path_11893" data-name="Path 11893" d="M5,24h.754v.754H5Z" transform="translate(-3.491 -15.326)" fill="#4683c3"/>
      <path id="Path_11894" data-name="Path 11894" d="M9,24h5.28v.754H9Z" transform="translate(-5.983 -15.326)" fill="#4683c3"/>
      <path id="Path_11895" data-name="Path 11895" d="M5,37.772H7.263V34H5Zm.754-3.017h.754v2.263H5.754Z" transform="translate(-3.491 -21.554)" fill="#4683c3"/>
      <path id="Path_11896" data-name="Path 11896" d="M13,39.017h2.263V36H13Zm.754-2.263h.754v1.509h-.754Z" transform="translate(-8.474 -22.8)" fill="#4683c3"/>
      <path id="Path_11897" data-name="Path 11897" d="M21,34.034h2.263V28H21Zm.754-5.28h.754V33.28h-.754Z" transform="translate(-13.457 -17.817)" fill="#4683c3"/>
    </g>
  </g>
</svg>
