<svg xmlns="http://www.w3.org/2000/svg" width="23.975" height="23.976" viewBox="0 0 23.975 23.976">
  <g id="Group_11738" data-name="Group 11738" transform="translate(-770.558 -234.763)">
    <g id="bulk_action" transform="translate(770.558 234.763)">
      <path id="Path_11876" data-name="Path 11876" d="M49.507,4.2l-.95-.316.448-.9L47.517,1.5l-.9.448L46.306,1H44.2l-.316.95-.9-.448L41.5,2.99l.448.9L41,4.2v2.1l.95.316-.448.9L42.99,9.005l.9-.448.316.95h2.1l.316-.95.9.448,1.488-1.488-.448-.9.95-.316Zm-.773,1.547-.888.3-.065.171c-.019.05-.039.1-.06.146l-.075.167.418.836-.7.7-.836-.418-.167.075c-.048.021-.1.041-.146.06l-.171.065-.3.888h-.99l-.3-.888-.171-.065c-.05-.019-.1-.039-.146-.06l-.167-.075-.836.418-.7-.7.418-.836-.075-.167c-.021-.048-.041-.1-.06-.146l-.065-.171-.887-.3v-.99l.888-.3.065-.171c.019-.05.039-.1.06-.146l.075-.167-.418-.836.7-.7.836.418.167-.075c.048-.021.1-.041.146-.06l.171-.065.3-.888h.99l.3.888.171.065c.05.019.1.039.146.06l.167.075.836-.418.7.7-.418.836.075.167c.021.048.041.1.06.146l.065.171.887.3Z" transform="translate(-25.532 -1)" fill="#5b5b5b"/>
      <path id="Path_11877" data-name="Path 11877" d="M48.934,7a1.933,1.933,0,1,0,1.934,1.933A1.936,1.936,0,0,0,48.934,7Zm0,3.094a1.16,1.16,0,1,1,1.16-1.16A1.162,1.162,0,0,1,48.934,10.094Z" transform="translate(-29.212 -4.68)" fill="#5b5b5b"/>
      <path id="Path_11878" data-name="Path 11878" d="M9.005,42.99,7.517,41.5l-.9.448L6.306,41H4.2l-.316.95-.9-.448L1.5,42.99l.448.9L1,44.2v2.1l.95.316-.448.9L2.99,49.005l.9-.448.316.95h2.1l.316-.95.9.448,1.488-1.488-.448-.9.95-.316V44.2l-.95-.316Zm-.271,1.769v.99l-.888.3-.065.171c-.019.05-.039.1-.06.146l-.075.167.418.836-.7.7-.836-.418-.167.075c-.048.021-.1.041-.146.06l-.171.065-.3.887h-.99l-.3-.888-.171-.065c-.05-.019-.1-.039-.146-.06l-.167-.075-.836.418-.7-.7.418-.836-.075-.167c-.021-.048-.041-.1-.06-.146l-.065-.171-.888-.3v-.99l.888-.3.065-.171c.019-.05.039-.1.06-.146l.075-.167-.418-.836.7-.7.836.418.167-.075c.048-.021.1-.041.146-.06l.171-.065.3-.888h.99l.3.888.171.065c.05.019.1.039.146.06l.167.075.836-.418.7.7-.418.836.075.167c.021.048.041.1.06.146l.065.171Z" transform="translate(-1 -25.532)" fill="#5b5b5b"/>
      <path id="Path_11879" data-name="Path 11879" d="M8.934,47a1.933,1.933,0,1,0,1.934,1.933A1.936,1.936,0,0,0,8.934,47Zm0,3.094a1.16,1.16,0,1,1,1.16-1.16A1.162,1.162,0,0,1,8.934,50.094Z" transform="translate(-4.68 -29.212)" fill="#5b5b5b"/>
      <path id="Path_11880" data-name="Path 11880" d="M24.933,27.057v1.063a1.162,1.162,0,0,0,1.16,1.16h.773a1.162,1.162,0,0,0,1.16-1.16V27.041a.745.745,0,0,1,.333-.634,3.481,3.481,0,1,0-3.752.005A.76.76,0,0,1,24.933,27.057Zm2.32,1.063a.387.387,0,0,1-.387.387h-.773a.387.387,0,0,1-.387-.387v-.387h1.547Zm-1.16-4.64a.387.387,0,1,1,.387.387A.387.387,0,0,1,26.093,23.48Zm-2.3-.358a2.716,2.716,0,0,1,2.367-2.331,2.8,2.8,0,0,1,.321-.019,2.675,2.675,0,0,1,1.8.688,2.706,2.706,0,0,1-.34,4.3,1.507,1.507,0,0,0-.684,1.2h-.392V24.569a1.16,1.16,0,1,0-.773,0v2.391H25.7a1.507,1.507,0,0,0-.676-1.2A2.7,2.7,0,0,1,23.8,23.122Z" transform="translate(-14.492 -12.653)" fill="#5b5b5b"/>
      <path id="Path_11881" data-name="Path 11881" d="M40.044,27.494a1.11,1.11,0,0,0-1.846,0L36.191,30.5a.981.981,0,0,0,.816,1.524h.567v3.094H31v.773h6.574a.774.774,0,0,0,.773-.773V31.254h-1.34a.207.207,0,0,1-.172-.322l2.006-3.009a.348.348,0,0,1,.559,0l2.006,3.009a.2.2,0,0,1,.035.115.208.208,0,0,1-.207.207h-1.34v4.64a1.548,1.548,0,0,1-1.547,1.547H31v.773h7.347a2.323,2.323,0,0,0,2.32-2.32V32.027h.567A.98.98,0,0,0,42.05,30.5Z" transform="translate(-19.399 -16.946)" fill="#5b5b5b"/>
      <path id="Path_11882" data-name="Path 11882" d="M27,54h.773v.773H27Z" transform="translate(-16.946 -33.505)" fill="#5b5b5b"/>
      <path id="Path_11883" data-name="Path 11883" d="M6.171,18.72a1.11,1.11,0,0,0,1.846,0l2.006-3.009a.981.981,0,0,0-.816-1.524H8.64V11.094h6.574V10.32H8.64a.774.774,0,0,0-.773.773v3.867h1.34a.207.207,0,0,1,.172.322L7.373,18.291a.348.348,0,0,1-.559,0L4.808,15.282a.2.2,0,0,1-.035-.115.207.207,0,0,1,.207-.207H6.32V10.32A1.548,1.548,0,0,1,7.867,8.773h7.347V8H7.867a2.323,2.323,0,0,0-2.32,2.32v3.867H4.98a.98.98,0,0,0-.816,1.524Z" transform="translate(-2.84 -5.293)" fill="#5b5b5b"/>
      <path id="Path_11884" data-name="Path 11884" d="M35,8h.773v.773H35Z" transform="translate(-21.852 -5.293)" fill="#5b5b5b"/>
    </g>
  </g>
</svg>
