<svg xmlns="http://www.w3.org/2000/svg" width="23.088" height="23.087" viewBox="0 0 23.088 23.087">
  <g id="Group_11744" data-name="Group 11744" transform="translate(-175 -236.763)">
    <g id="Blue_management" transform="translate(175 236.763)">
      <g id="Group_11669" data-name="Group 11669" transform="translate(6.541 6.926)">
        <g id="Group_11668" data-name="Group 11668">
          <path id="Path_11898" data-name="Path 11898" d="M145.745,148.128l-.672-.3c-.03-.112-.063-.219-.1-.322l.373-.643a.386.386,0,0,0,0-.381,5.115,5.115,0,0,0-.655-.915.385.385,0,0,0-.373-.118l-.706.162c-.083-.066-.169-.13-.258-.19l-.068-.748a.385.385,0,0,0-.221-.314,4.909,4.909,0,0,0-1.054-.354.387.387,0,0,0-.381.138l-.493.623h-.276l-.493-.623a.386.386,0,0,0-.381-.138,4.909,4.909,0,0,0-1.054.354.385.385,0,0,0-.221.314l-.068.747q-.134.091-.258.19l-.706-.162a.384.384,0,0,0-.373.119,5.1,5.1,0,0,0-.655.915.386.386,0,0,0,0,.381l.373.643c-.036.1-.07.208-.1.319l-.7.3a.385.385,0,0,0-.234.354v1.045a.385.385,0,0,0,.234.354l.7.3c.03.111.063.217.1.319l-.373.643a.386.386,0,0,0,0,.381,5.112,5.112,0,0,0,.655.915.385.385,0,0,0,.373.118l.706-.162c.083.066.169.13.258.19l.068.747a.385.385,0,0,0,.221.314,4.9,4.9,0,0,0,1.054.354.387.387,0,0,0,.381-.138l.493-.623h.276l.493.623a.385.385,0,0,0,.381.138,4.907,4.907,0,0,0,1.054-.354.386.386,0,0,0,.221-.314l.068-.747q.134-.091.258-.19l.706.162a.384.384,0,0,0,.373-.119,5.1,5.1,0,0,0,.655-.915.386.386,0,0,0,0-.381l-.373-.643c.037-.1.07-.21.1-.322l.672-.3a.385.385,0,0,0,.229-.352V148.48A.385.385,0,0,0,145.745,148.128Zm-.54,1.147-.614.271a.385.385,0,0,0-.219.266,3.555,3.555,0,0,1-.178.571.385.385,0,0,0,.023.34l.352.607a4.336,4.336,0,0,1-.3.421l-.665-.152a.383.383,0,0,0-.341.086,3.453,3.453,0,0,1-.472.349.386.386,0,0,0-.181.292l-.065.706a4.128,4.128,0,0,1-.46.157l-.456-.576a.385.385,0,0,0-.3-.146h-.649a.385.385,0,0,0-.3.146l-.456.576a4.161,4.161,0,0,1-.46-.157l-.065-.706a.385.385,0,0,0-.18-.292,3.489,3.489,0,0,1-.472-.349.383.383,0,0,0-.341-.086l-.665.152a4.333,4.333,0,0,1-.3-.421l.352-.607a.385.385,0,0,0,.023-.34,3.558,3.558,0,0,1-.178-.571.385.385,0,0,0-.224-.268l-.64-.273v-.537l.64-.273a.385.385,0,0,0,.224-.268,3.555,3.555,0,0,1,.178-.571.385.385,0,0,0-.023-.34l-.352-.607a4.336,4.336,0,0,1,.3-.421l.665.152a.384.384,0,0,0,.341-.086,3.452,3.452,0,0,1,.472-.349.386.386,0,0,0,.181-.292l.065-.706a4.127,4.127,0,0,1,.46-.157l.456.576a.384.384,0,0,0,.3.146h.649a.385.385,0,0,0,.3-.146l.456-.576a4.173,4.173,0,0,1,.46.157l.065.706a.386.386,0,0,0,.18.292,3.484,3.484,0,0,1,.472.349.384.384,0,0,0,.341.086l.665-.152a4.3,4.3,0,0,1,.3.421l-.352.607a.386.386,0,0,0-.023.341,3.525,3.525,0,0,1,.178.57.385.385,0,0,0,.219.266l.614.271v.544Z" transform="translate(-136 -144.001)" fill="#4683c3"/>
        </g>
      </g>
      <g id="Group_11671" data-name="Group 11671" transform="translate(8.85 9.235)">
        <g id="Group_11670" data-name="Group 11670">
          <path id="Path_11899" data-name="Path 11899" d="M186.694,192a2.694,2.694,0,1,0,2.694,2.694A2.694,2.694,0,0,0,186.694,192Zm0,4.617a1.924,1.924,0,1,1,1.924-1.924A1.924,1.924,0,0,1,186.694,196.617Z" transform="translate(-184 -192)" fill="#4683c3"/>
        </g>
      </g>
      <g id="Group_11673" data-name="Group 11673" transform="translate(0 8.081)">
        <g id="Group_11672" data-name="Group 11672" transform="translate(0)">
          <path id="Path_11900" data-name="Path 11900" d="M3.092,170.529a1.536,1.536,0,1,0-2.707-.991,1.525,1.525,0,0,0,.371.991A1.534,1.534,0,0,0,0,171.847v2.693a.385.385,0,0,0,.385.385H3.463a.385.385,0,0,0,.385-.385h0v-2.693A1.534,1.534,0,0,0,3.092,170.529Zm-1.168-1.76a.77.77,0,1,1-.77.77A.77.77,0,0,1,1.924,168.769Zm1.154,5.387H.77v-2.309a.77.77,0,0,1,.77-.77h.77a.77.77,0,0,1,.77.77Z" transform="translate(0 -167.999)" fill="#4683c3"/>
        </g>
      </g>
      <g id="Group_11675" data-name="Group 11675" transform="translate(8.85 17.7)">
        <g id="Group_11674" data-name="Group 11674">
          <path id="Path_11901" data-name="Path 11901" d="M188.967,370.309a2.311,2.311,0,0,0-1.889-1.889V368h-.77v.42a2.311,2.311,0,0,0-1.889,1.889H184v.77h.42a2.311,2.311,0,0,0,1.889,1.889v.42h.77v-.42a2.311,2.311,0,0,0,1.889-1.889h.42v-.77Zm-.789.77a1.537,1.537,0,0,1-1.1,1.1v-.33h-.77v.33a1.537,1.537,0,0,1-1.1-1.1h.33v-.77h-.33a1.537,1.537,0,0,1,1.1-1.1v.33h.77v-.33a1.537,1.537,0,0,1,1.1,1.1h-.33v.77Z" transform="translate(-184 -368)" fill="#4683c3"/>
        </g>
      </g>
      <g id="Group_11677" data-name="Group 11677" transform="translate(9.235 0)">
        <g id="Group_11676" data-name="Group 11676" transform="translate(0 0)">
          <path id="Path_11902" data-name="Path 11902" d="M194.231,0A2.31,2.31,0,0,0,192,2.233a2.219,2.219,0,0,0,1.154,1.932V5.772a.385.385,0,0,0,.385.385h1.539a.385.385,0,0,0,.385-.385h0V4.164a2.219,2.219,0,0,0,1.154-1.932A2.31,2.31,0,0,0,194.231,0Zm.462,5.386h-.77v-.77h.77Zm.236-1.818a.382.382,0,0,0-.224.278h-.792a.382.382,0,0,0-.224-.278,1.463,1.463,0,0,1-.919-1.337,1.541,1.541,0,0,1,3.078,0A1.463,1.463,0,0,1,194.929,3.57Z" transform="translate(-192 0)" fill="#4683c3"/>
        </g>
      </g>
      <g id="Group_11679" data-name="Group 11679" transform="translate(7.892 1.395)">
        <g id="Group_11678" data-name="Group 11678" transform="translate(0 0)">
          <rect id="Rectangle_1553" data-name="Rectangle 1553" height="1" transform="translate(0.108 -0.158)" fill="#4683c3"/>
        </g>
      </g>
      <g id="Group_11681" data-name="Group 11681" transform="translate(14.658 1.395)">
        <g id="Group_11680" data-name="Group 11680" transform="translate(0 0)">
          <rect id="Rectangle_1554" data-name="Rectangle 1554" width="1" height="1" transform="translate(0.343 -0.158)" fill="#4683c3"/>
        </g>
      </g>
      <g id="Group_11683" data-name="Group 11683" transform="translate(14.076 0.113)">
        <g id="Group_11682" data-name="Group 11682" transform="translate(0 0)">
          <rect id="Rectangle_1555" data-name="Rectangle 1555" width="0.77" height="0.77" transform="translate(0 0.544) rotate(-45)" fill="#4683c3"/>
        </g>
      </g>
      <g id="Group_11685" data-name="Group 11685" transform="translate(7.921 0.114)">
        <g id="Group_11684" data-name="Group 11684" transform="translate(0 0)">
          <rect id="Rectangle_1556" data-name="Rectangle 1556" width="0.77" height="0.77" transform="translate(0 0.544) rotate(-45)" fill="#4683c3"/>
        </g>
      </g>
      <g id="Group_11687" data-name="Group 11687" transform="translate(7.921 3.304)">
        <g id="Group_11686" data-name="Group 11686" transform="translate(0 0)">
          <rect id="Rectangle_1557" data-name="Rectangle 1557" width="0.77" height="0.77" transform="translate(0 0.544) rotate(-45)" fill="#4683c3"/>
        </g>
      </g>
      <g id="Group_11689" data-name="Group 11689" transform="translate(14.078 3.304)">
        <g id="Group_11688" data-name="Group 11688" transform="translate(0 0)">
          <rect id="Rectangle_1558" data-name="Rectangle 1558" width="0.77" height="0.77" transform="translate(0 0.544) rotate(-45)" fill="#4683c3"/>
        </g>
      </g>
      <g id="Group_11691" data-name="Group 11691" transform="translate(18.855 8.081)">
        <g id="Group_11690" data-name="Group 11690">
          <path id="Path_11903" data-name="Path 11903" d="M394.694,171.078h-1.154a.77.77,0,1,1,0-1.539h2.309v-.77h-1.154V168h-.77v.77h-.385a1.539,1.539,0,1,0,0,3.078h1.154a.77.77,0,1,1,0,1.539h-2.309v.77h1.539v.77h.77v-.77a1.539,1.539,0,0,0,0-3.078Z" transform="translate(-392 -168)" fill="#4683c3"/>
        </g>
      </g>
      <g id="Group_11693" data-name="Group 11693" transform="translate(2.372 15.622)">
        <g id="Group_11692" data-name="Group 11692">
          <path id="Path_11904" data-name="Path 11904" d="M50.018,324.8l-.7.308a9.981,9.981,0,0,0,5.245,5.2l.3-.708A9.217,9.217,0,0,1,50.018,324.8Z" transform="translate(-49.313 -324.796)" fill="#4683c3"/>
        </g>
      </g>
      <g id="Group_11695" data-name="Group 11695" transform="translate(15.238 15.622)">
        <g id="Group_11694" data-name="Group 11694">
          <path id="Path_11905" data-name="Path 11905" d="M321.57,324.8a9.224,9.224,0,0,1-4.773,4.773l.308.705a9.99,9.99,0,0,0,5.17-5.17Z" transform="translate(-316.797 -324.797)" fill="#4683c3"/>
        </g>
      </g>
      <g id="Group_11697" data-name="Group 11697" transform="translate(15.934 3.125)">
        <g id="Group_11696" data-name="Group 11696">
          <path id="Path_11906" data-name="Path 11906" d="M331.632,64.965l-.366.677A9.241,9.241,0,0,1,335,69.379l.677-.366A10.008,10.008,0,0,0,331.632,64.965Z" transform="translate(-331.266 -64.965)" fill="#4683c3"/>
        </g>
      </g>
      <g id="Group_11699" data-name="Group 11699" transform="translate(2.74 3.125)">
        <g id="Group_11698" data-name="Group 11698">
          <path id="Path_11907" data-name="Path 11907" d="M61.009,64.965a10.011,10.011,0,0,0-4.048,4.048l.677.366a9.238,9.238,0,0,1,3.737-3.737Z" transform="translate(-56.961 -64.965)" fill="#4683c3"/>
        </g>
      </g>
    </g>
  </g>
</svg>
