<svg xmlns="http://www.w3.org/2000/svg" width="22.219" height="17.573" viewBox="0 0 22.219 17.573">
  <path id="Icon_awesome-newspaper" data-name="Icon awesome-newspaper" d="M20.335,4.5H3.242a.969.969,0,0,0-.884,1.036v.345H.884A.969.969,0,0,0,0,6.917v11.74a2.261,2.261,0,0,0,2.063,2.417H19.451A1.938,1.938,0,0,0,21.219,19V5.536A.969.969,0,0,0,20.335,4.5ZM2.063,19a.323.323,0,0,1-.295-.345V7.953h.589v10.7A.323.323,0,0,1,2.063,19Zm8.694-.691h-5.6a.485.485,0,0,1-.442-.518v-.345a.485.485,0,0,1,.442-.518h5.6a.485.485,0,0,1,.442.518v.345A.485.485,0,0,1,10.757,18.311Zm7.662,0h-5.6a.485.485,0,0,1-.442-.518v-.345a.485.485,0,0,1,.442-.518h5.6a.485.485,0,0,1,.442.518v.345A.485.485,0,0,1,18.419,18.311Zm-7.662-4.143h-5.6a.485.485,0,0,1-.442-.518V13.3a.485.485,0,0,1,.442-.518h5.6a.485.485,0,0,1,.442.518v.345A.485.485,0,0,1,10.757,14.168Zm7.662,0h-5.6a.485.485,0,0,1-.442-.518V13.3a.485.485,0,0,1,.442-.518h5.6a.485.485,0,0,1,.442.518v.345A.485.485,0,0,1,18.419,14.168Zm0-4.143H5.157a.485.485,0,0,1-.442-.518V7.78a.485.485,0,0,1,.442-.518H18.419a.485.485,0,0,1,.442.518V9.507A.485.485,0,0,1,18.419,10.024Z" transform="translate(0.5 -4)" fill="none" stroke="#fff" stroke-width="1"/>
</svg>
