<svg xmlns="http://www.w3.org/2000/svg" width="23.975" height="23.976" viewBox="0 0 23.975 23.976">
  <g id="Group_11739" data-name="Group 11739" transform="translate(-955.524 -235.763)">
    <g id="my_account" transform="translate(955.524 235.763)">
      <path id="Path_11870" data-name="Path 11870" d="M24.707,31.127a6.386,6.386,0,1,1-.034-12.773h.034a6.386,6.386,0,1,1,.034,12.773Zm0-12.088h-.032a5.7,5.7,0,1,0,.032,11.4h.032a5.7,5.7,0,1,0-.032-11.4Z" transform="translate(-12.72 -12.753)" fill="#5b5b5b"/>
      <path id="Path_11871" data-name="Path 11871" d="M12.54,25.975a.343.343,0,0,1-.331-.253L11.446,22.9a9.213,9.213,0,0,1-1.871-.764L7.054,23.62a.343.343,0,0,1-.415-.052l-2.15-2.126a.343.343,0,0,1-.057-.414L5.889,18.49A9.237,9.237,0,0,1,5.1,16.627L2.274,15.9a.343.343,0,0,1-.257-.33L2,12.542a.343.343,0,0,1,.253-.332l2.824-.763a9.213,9.213,0,0,1,.764-1.871L4.355,7.054a.343.343,0,0,1,.052-.415l2.126-2.15a.343.343,0,0,1,.414-.057L9.485,5.889A9.237,9.237,0,0,1,11.348,5.1l.732-2.83a.343.343,0,0,1,.33-.257L15.434,2a.343.343,0,0,1,.331.253l.763,2.824a9.214,9.214,0,0,1,1.871.764L20.92,4.355a.343.343,0,0,1,.415.052l2.15,2.126a.342.342,0,0,1,.056.414L22.083,9.485a9.237,9.237,0,0,1,.785,1.863l2.833.732a.343.343,0,0,1,.257.33l.017,3.024a.343.343,0,0,1-.253.332l-2.824.763a9.213,9.213,0,0,1-.764,1.871l1.486,2.522a.343.343,0,0,1-.052.415l-2.126,2.15a.343.343,0,0,1-.414.056L18.49,22.085a9.237,9.237,0,0,1-1.863.785L15.9,25.7a.343.343,0,0,1-.33.257l-3.024.017ZM9.569,21.4a.343.343,0,0,1,.171.045,8.535,8.535,0,0,0,2.072.847.342.342,0,0,1,.244.242l.745,2.76,2.5-.014.715-2.766a.343.343,0,0,1,.24-.245,8.562,8.562,0,0,0,2.063-.87.342.342,0,0,1,.343,0l2.479,1.424L22.9,21.043,21.444,18.58a.343.343,0,0,1,0-.343,8.535,8.535,0,0,0,.847-2.072.342.342,0,0,1,.242-.244l2.76-.748-.014-2.5-2.766-.715a.343.343,0,0,1-.245-.24A8.563,8.563,0,0,0,21.4,9.66a.342.342,0,0,1,0-.343L22.82,6.838,21.043,5.079,18.58,6.531a.343.343,0,0,1-.343,0,8.535,8.535,0,0,0-2.072-.847.343.343,0,0,1-.244-.242l-.748-2.76-2.5.014-.715,2.766a.343.343,0,0,1-.24.245,8.563,8.563,0,0,0-2.063.87.343.343,0,0,1-.343,0L6.835,5.158,5.079,6.932,6.531,9.4a.342.342,0,0,1,0,.343,8.535,8.535,0,0,0-.847,2.072.343.343,0,0,1-.242.244l-2.76.745L2.7,15.3l2.766.715a.343.343,0,0,1,.245.24,8.563,8.563,0,0,0,.87,2.063.343.343,0,0,1,0,.343L5.158,21.14,6.932,22.9,9.4,21.444a.343.343,0,0,1,.171-.048Z" transform="translate(-2 -2)" fill="#5b5b5b"/>
      <path id="Path_11872" data-name="Path 11872" d="M32,29.348a2.633,2.633,0,0,1-2.6-2.657,2.606,2.606,0,1,1,5.206,0A2.633,2.633,0,0,1,32,29.348Zm0-4.711a1.884,1.884,0,0,0-1.918,2.055,1.918,1.918,0,1,0,3.834,0A1.881,1.881,0,0,0,32,24.636Z" transform="translate(-20.015 -16.432)" fill="#5b5b5b"/>
      <path id="Path_11873" data-name="Path 11873" d="M32.564,44.486a.343.343,0,0,1-.343-.343V44.1a2.286,2.286,0,0,0-2.281-2.286H29.78a2.477,2.477,0,0,1-2.655,0h-.16a2.286,2.286,0,0,0-2.28,2.286v.046a.343.343,0,0,1-.685,0V44.1a2.972,2.972,0,0,1,2.966-2.971h.265a.342.342,0,0,1,.2.063,1.786,1.786,0,0,0,2.052,0,.342.342,0,0,1,.2-.063h.265A2.972,2.972,0,0,1,32.907,44.1v.046a.342.342,0,0,1-.342.343Z" transform="translate(-16.465 -27.725)" fill="#5b5b5b"/>
      <path id="Path_11874" data-name="Path 11874" d="M29.357,49.772a.343.343,0,0,1-.343-.343V47.8a.343.343,0,1,1,.685,0v1.624A.343.343,0,0,1,29.357,49.772Z" transform="translate(-19.762 -31.891)" fill="#5b5b5b"/>
      <path id="Path_11875" data-name="Path 11875" d="M43.329,49.772a.343.343,0,0,1-.343-.343V47.8a.343.343,0,0,1,.685,0v1.624A.343.343,0,0,1,43.329,49.772Z" transform="translate(-28.948 -31.891)" fill="#5b5b5b"/>
    </g>
  </g>
</svg>
