<svg xmlns="http://www.w3.org/2000/svg" width="16.544" height="16.155" viewBox="0 0 16.544 16.155">
  <g id="transfer" transform="translate(-2 -2.823)">
    <path id="Path_11936" data-name="Path 11936" d="M9.9,30.449H2.236A.236.236,0,0,1,2,30.212v-.865a2.692,2.692,0,0,1,2.529-2.694.239.239,0,0,1,.249.223.236.236,0,0,1-.223.249,2.219,2.219,0,0,0-2.083,2.222v.629H9.667v-.629a2.22,2.22,0,0,0-2.083-2.226.236.236,0,0,1-.223-.249.239.239,0,0,1,.249-.223,2.694,2.694,0,0,1,2.529,2.7v.865A.236.236,0,0,1,9.9,30.449Z" transform="translate(0 -18.195)" fill="#fff"/>
    <path id="Path_11937" data-name="Path 11937" d="M13.418,36.876H8.9a.236.236,0,0,1-.236-.236V35.3a.236.236,0,0,1,.473,0v1.1h4.043V35.3a.236.236,0,0,1,.473,0v1.338A.236.236,0,0,1,13.418,36.876Z" transform="translate(-5.091 -24.621)" fill="#fff"/>
    <path id="Path_11938" data-name="Path 11938" d="M12.756,27.171a.236.236,0,0,1-.2-.109L11.8,25.88a.236.236,0,0,1,.013-.274l.28-.355a.236.236,0,0,1,.318-.049l1.247.843a.236.236,0,0,1,.026.371l-.767.692A.236.236,0,0,1,12.756,27.171Zm-.47-1.405.518.806.336-.3-.814-.553Z" transform="translate(-7.454 -17.059)" fill="#fff"/>
    <path id="Path_11939" data-name="Path 11939" d="M19.224,27.166a.236.236,0,0,1-.158-.062l-.768-.693a.236.236,0,0,1,.026-.371l1.247-.844a.236.236,0,0,1,.318.049l.28.353a.236.236,0,0,1,.014.274l-.759,1.185a.236.236,0,0,1-.168.107l-.031,0Zm-.385-.9.337.3.518-.808-.039-.05Z" transform="translate(-12.387 -17.054)" fill="#fff"/>
    <path id="Path_11940" data-name="Path 11940" d="M12.56,19.814A2.061,2.061,0,0,1,10.5,17.753v-.561a.236.236,0,1,1,.473,0v.561a1.588,1.588,0,1,0,3.177,0V17.19a.236.236,0,1,1,.473,0v.562a2.063,2.063,0,0,1-2.061,2.061Z" transform="translate(-6.49 -10.791)" fill="#fff"/>
    <path id="Path_11941" data-name="Path 11941" d="M8.894,17.377H8.8a.741.741,0,0,1-.685-.785.849.849,0,0,1,.184-.538.673.673,0,0,1,.353-.229.236.236,0,1,1,.115.459.2.2,0,0,0-.1.071.376.376,0,0,0-.076.236c0,.184.112.312.213.312h.089a.236.236,0,1,1,0,.473Z" transform="translate(-4.672 -9.924)" fill="#fff"/>
    <path id="Path_11942" data-name="Path 11942" d="M26.367,17.376h-.089a.236.236,0,1,1,0-.473h.089c.1,0,.212-.128.212-.312a.376.376,0,0,0-.077-.238.2.2,0,0,0-.1-.069.236.236,0,1,1,.112-.459.67.67,0,0,1,.355.227.849.849,0,0,1,.186.54A.74.74,0,0,1,26.367,17.376Z" transform="translate(-18.36 -9.923)" fill="#fff"/>
    <path id="Path_11943" data-name="Path 11943" d="M13.085,6.639A.4.4,0,0,1,12.7,6.39a9.817,9.817,0,0,1-.337-1.067,6.214,6.214,0,0,1-2.389.425l-.11.584a.231.231,0,0,1-.028.075.393.393,0,0,1-.744-.088L9.08,6.284A6.552,6.552,0,0,1,8.809,4.57,1.82,1.82,0,0,1,9.054,3.9a.243.243,0,0,1,.022-.029,2.85,2.85,0,0,1,2.559-1.048,2.323,2.323,0,0,1,1.954,1.253,2.243,2.243,0,0,1,.069,1.3s-.133.609-.182.924a.4.4,0,0,1-.391.332Zm-.557-1.884a.236.236,0,0,1,.232.193,8.017,8.017,0,0,0,.292,1.038c.06-.318.142-.69.145-.709a1.808,1.808,0,0,0-.041-1.009A1.862,1.862,0,0,0,11.6,3.3a2.4,2.4,0,0,0-2.148.858l-.008.011a1.42,1.42,0,0,0-.167.451,5.269,5.269,0,0,0,.187,1.253l.078-.412a.236.236,0,0,1,.251-.192,5.513,5.513,0,0,0,2.629-.487A.236.236,0,0,1,12.528,4.754Z" transform="translate(-5.195 0)" fill="#fff"/>
    <path id="Path_11944" data-name="Path 11944" d="M45.463,58.9H37.8a.236.236,0,0,1-.236-.236V57.8a2.692,2.692,0,0,1,2.529-2.7.237.237,0,1,1,.026.473A2.219,2.219,0,0,0,38.032,57.8v.629h7.2V57.8a2.22,2.22,0,0,0-2.083-2.225.236.236,0,0,1-.223-.249.241.241,0,0,1,.25-.223A2.694,2.694,0,0,1,45.7,57.8v.865A.236.236,0,0,1,45.463,58.9Z" transform="translate(-27.156 -39.921)" fill="#fff"/>
    <path id="Path_11945" data-name="Path 11945" d="M48.978,65.328H44.462a.236.236,0,0,1-.236-.236V63.753a.236.236,0,1,1,.473,0v1.1h4.043v-1.1a.236.236,0,1,1,.473,0v1.338A.236.236,0,0,1,48.978,65.328Z" transform="translate(-32.246 -46.349)" fill="#fff"/>
    <path id="Path_11946" data-name="Path 11946" d="M48.315,55.62l-.032,0a.236.236,0,0,1-.168-.106l-.759-1.182a.236.236,0,0,1,.013-.274l.28-.355a.236.236,0,0,1,.318-.049l1.247.844a.236.236,0,0,1,.026.371l-.768.693A.236.236,0,0,1,48.315,55.62Zm-.47-1.405.518.807.337-.3-.815-.552Z" transform="translate(-34.608 -38.784)" fill="#fff"/>
    <path id="Path_11947" data-name="Path 11947" d="M54.785,55.617a.236.236,0,0,1-.159-.061l-.767-.694a.236.236,0,0,1,.026-.371l1.248-.844a.236.236,0,0,1,.318.049l.28.353a.236.236,0,0,1,.014.274l-.76,1.185a.236.236,0,0,1-.168.107Zm-.385-.9.337.3.518-.808-.039-.049Z" transform="translate(-39.543 -38.781)" fill="#fff"/>
    <path id="Path_11948" data-name="Path 11948" d="M48.12,48.265A2.061,2.061,0,0,1,46.059,46.2v-.561a.236.236,0,1,1,.473,0V46.2a1.588,1.588,0,1,0,3.177,0v-.562a.236.236,0,1,1,.473,0V46.2A2.064,2.064,0,0,1,48.12,48.265Z" transform="translate(-33.646 -32.518)" fill="#fff"/>
    <path id="Path_11949" data-name="Path 11949" d="M44.452,45.828h-.089a.74.74,0,0,1-.685-.784.848.848,0,0,1,.184-.538.673.673,0,0,1,.353-.229.236.236,0,1,1,.115.459.2.2,0,0,0-.1.071.375.375,0,0,0-.076.236c0,.184.112.312.213.312h.089a.236.236,0,0,1,0,.473Z" transform="translate(-31.826 -31.651)" fill="#fff"/>
    <path id="Path_11950" data-name="Path 11950" d="M61.926,45.826h-.089a.236.236,0,1,1,0-.473h.089c.1,0,.213-.128.213-.312a.378.378,0,0,0-.078-.239.2.2,0,0,0-.1-.069.236.236,0,1,1,.113-.459.671.671,0,0,1,.355.227.851.851,0,0,1,.186.54.74.74,0,0,1-.685.784Z" transform="translate(-45.514 -31.649)" fill="#fff"/>
    <path id="Path_11951" data-name="Path 11951" d="M48.66,35.047a.4.4,0,0,1-.389-.248,9.852,9.852,0,0,1-.337-1.068,6.175,6.175,0,0,1-2.389.427l-.11.584a.236.236,0,0,1-.028.075.393.393,0,0,1-.744-.088A9.8,9.8,0,0,1,44.382,33a1.162,1.162,0,0,1,.28-.733.654.654,0,0,1,.734-.118,1.541,1.541,0,0,1,1.029-.857,2.059,2.059,0,0,1,.8-.06,2.317,2.317,0,0,1,1.936,1.251,2.243,2.243,0,0,1,.069,1.3s-.133.609-.182.924A.4.4,0,0,1,48.66,35.047ZM48.1,33.162a.236.236,0,0,1,.232.193,8.031,8.031,0,0,0,.292,1.038c.06-.318.142-.69.145-.709a1.807,1.807,0,0,0-.041-1.01,1.86,1.86,0,0,0-1.554-.969,1.6,1.6,0,0,0-.619.044,1.027,1.027,0,0,0-.788.78.236.236,0,0,1-.375.161c-.269-.2-.384-.1-.4-.088a.715.715,0,0,0-.142.4,7.8,7.8,0,0,0,.189,1.264l.075-.4a.236.236,0,0,1,.252-.192A5.519,5.519,0,0,0,48,33.187.24.24,0,0,1,48.1,33.162Z" transform="translate(-32.365 -21.684)" fill="#fff"/>
    <path id="Path_11952" data-name="Path 11952" d="M17.1,54.111H11.809a.236.236,0,0,1-.236-.236V49.8a.236.236,0,0,1,.473,0v3.841H17.1a.236.236,0,0,1,0,.473Z" transform="translate(-7.311 -35.691)" fill="#fff"/>
    <path id="Path_11953" data-name="Path 11953" d="M9.843,51.029a.236.236,0,0,1-.176-.078l-.709-.788-.709.788a.236.236,0,1,1-.351-.316l.886-.984a.244.244,0,0,1,.351,0l.886.984a.236.236,0,0,1-.176.394Z" transform="translate(-4.458 -35.703)" fill="#fff"/>
    <path id="Path_11954" data-name="Path 11954" d="M43.553,9.736a.236.236,0,0,1-.236-.236V5.659H38.259a.236.236,0,0,1,0-.473h5.294a.236.236,0,0,1,.236.236V9.5a.236.236,0,0,1-.236.236Z" transform="translate(-27.509 -1.804)" fill="#fff"/>
    <path id="Path_11955" data-name="Path 11955" d="M57.8,19.733a.236.236,0,0,1-.176-.078l-.886-.984a.236.236,0,1,1,.351-.316l.709.788.709-.788a.236.236,0,0,1,.351.316l-.886.984A.236.236,0,0,1,57.8,19.733Z" transform="translate(-41.754 -11.801)" fill="#fff"/>
  </g>
</svg>
